<svg xmlns="http://www.w3.org/2000/svg" viewBox="0 0 48 48" fill="none">
  <path d="M24 8l6.9 4v8L24 24l-6.9-4v-8L24 8z" fill="var(--ax-cube-top, #3B82F6)"/>
  <path d="M24 8v16l6.9 4V12L24 8z" fill="var(--ax-cube-front, #2563EB)"/>
  <path d="M24 8l-6.9 4v8L24 24V8z" fill="var(--ax-cube-side, #1E3A5F)"/>
  <path d="M30.9 12L38 16.5v8L30.9 29l-6.9-4v-8l6.9-5z" fill="var(--ax-cube-top, #3B82F6)"/>
  <path d="M30.9 12v17l7.1 4.5v-8L30.9 12z" fill="var(--ax-cube-front, #2563EB)"/>
  <path d="M30.9 12l-6.9 4v8l6.9 5V12z" fill="var(--ax-cube-side, #1E3A5F)"/>
  <path d="M17.1 12L10 16.5v8l7.1 4.5 6.9-4v-8l-6.9-5z" fill="var(--ax-cube-top, #3B82F6)"/>
  <path d="M17.1 12v17L10 33.5v-8l7.1-13.5z" fill="var(--ax-cube-front, #2563EB)"/>
  <path d="M17.1 12l6.9 4v8l-6.9 5V12z" fill="var(--ax-cube-side, #1E3A5F)"/>
  <path d="M24 24l6.9 4v8L24 40l-6.9-4v-8L24 24z" fill="var(--ax-cube-top, #3B82F6)"/>
  <path d="M24 24v16l6.9-4v-8L24 24z" fill="var(--ax-cube-front, #2563EB)"/>
  <path d="M24 24l-6.9 4v8L24 40V24z" fill="var(--ax-cube-side, #1E3A5F)"/>
  <path d="M30.9 28L38 32.5v8L30.9 45l-6.9-4v-8l6.9-5z" fill="var(--ax-cube-top, #3B82F6)"/>
  <path d="M30.9 28v13l7.1 4v-8l-7.1-9z" fill="var(--ax-cube-front, #2563EB)"/>
  <path d="M17.1 28L10 32.5v8l7.1 4.5 6.9-4v-8l-6.9-5z" fill="var(--ax-cube-top, #3B82F6)"/>
  <path d="M17.1 28l-6.9 4v8l6.9 4.5V28z" fill="var(--ax-cube-side, #1E3A5F)"/>
</svg>
