<svg xmlns="http://www.w3.org/2000/svg" style="display:none" aria-hidden="true">
  <defs>
    <symbol id="ax-crm" viewBox="0 0 24 24" fill="none" stroke="currentColor" stroke-width="1.75" stroke-linecap="round" stroke-linejoin="round">
      <rect x="3" y="4" width="18" height="14" rx="1.5"/><path d="M7 8h10M7 12h6"/><rect x="14" y="14" width="5" height="4" rx="0.5"/><path d="M15.5 17v-2M17 17v-2M18.5 17v-2"/>
    </symbol>
    <symbol id="ax-email" viewBox="0 0 24 24" fill="none" stroke="currentColor" stroke-width="1.75" stroke-linecap="round" stroke-linejoin="round">
      <rect x="2" y="5" width="20" height="14" rx="1.5"/><path d="M2 7l10 7 10-7"/><path d="M6 14h12"/>
    </symbol>
    <symbol id="ax-erp" viewBox="0 0 24 24" fill="none" stroke="currentColor" stroke-width="1.75" stroke-linecap="round" stroke-linejoin="round">
      <rect x="4" y="3" width="16" height="18" rx="1.5"/><circle cx="12" cy="9" r="2.5"/><path d="M8 16c0-2.2 1.8-4 4-4s4 1.8 4 4"/><path d="M8 6h8"/>
    </symbol>
    <symbol id="ax-chat" viewBox="0 0 24 24" fill="none" stroke="currentColor" stroke-width="1.75" stroke-linecap="round" stroke-linejoin="round">
      <path d="M7 8.5c0-1.1.9-2 2-2h8c1.1 0 2 .9 2 2v5c0 1.1-.9 2-2 2h-4l-3 3v-3H9c-1.1 0-2-.9-2-2v-5z"/><path d="M5 11.5c0-1.1.9-2 2-2h1"/><path d="M8 14h4M8 11h6"/>
    </symbol>
    <symbol id="ax-shield" viewBox="0 0 24 24" fill="none" stroke="currentColor" stroke-width="1.75" stroke-linecap="round" stroke-linejoin="round">
      <path d="M20 13c0 5-3.5 7.5-7.66 8.95a1 1 0 0 1-.67-.01C7.5 20.5 4 18 4 13V6a1 1 0 0 1 1-1c2 0 4.5-1.2 6.24-2.72a1.17 1.17 0 0 1 1.52 0C14.51 3.81 17 5 19 5a1 1 0 0 1 1 1z"/>
    </symbol>
    <symbol id="ax-inventory" viewBox="0 0 24 24" fill="none" stroke="currentColor" stroke-width="1.75" stroke-linecap="round" stroke-linejoin="round">
      <rect width="20" height="12" x="2" y="6" rx="2"/><path d="M12 12h.01M17 12h.01M7 12h.01"/>
    </symbol>
    <symbol id="ax-delivery" viewBox="0 0 24 24" fill="none" stroke="currentColor" stroke-width="1.75" stroke-linecap="round" stroke-linejoin="round">
      <path d="M10 18H5a3 3 0 0 1-3-3V5a3 3 0 0 1 3-3h14a3 3 0 0 1 3 3v10a3 3 0 0 1-3 3h-5"/><path d="m10 18 4 4 4-4"/>
    </symbol>
    <symbol id="ax-marketing" viewBox="0 0 24 24" fill="none" stroke="currentColor" stroke-width="1.75" stroke-linecap="round" stroke-linejoin="round">
      <path d="M8.5 14.5A2.5 2.5 0 0 0 11 12c0-1.38-.5-2-1-3-1.072-2.143-.224-4.054 2-6 .5 2.5 2 4.9 4 6.5 2 1.6 3 3.5 3 5.5a7 7 0 1 1-14 0c0-1.153.433-2.294 1-3a2.5 2.5 0 0 0 2.5 2.5z"/>
    </symbol>
    <symbol id="ax-finance" viewBox="0 0 24 24" fill="none" stroke="currentColor" stroke-width="1.75" stroke-linecap="round" stroke-linejoin="round">
      <line x1="12" x2="12" y1="1" y2="23"/><path d="M17 5H9.5a3.5 3.5 0 0 0 0 7h5a3.5 3.5 0 0 1 0 7H6"/>
    </symbol>
    <symbol id="ax-check" viewBox="0 0 24 24" fill="none" stroke="currentColor" stroke-width="2" stroke-linecap="round" stroke-linejoin="round">
      <path d="M20 6 9 17l-5-5"/>
    </symbol>
    <symbol id="ax-x" viewBox="0 0 24 24" fill="none" stroke="currentColor" stroke-width="2" stroke-linecap="round" stroke-linejoin="round">
      <path d="M18 6 6 18M6 6l12 12"/>
    </symbol>
    <symbol id="ax-warning" viewBox="0 0 24 24" fill="none" stroke="currentColor" stroke-width="1.75" stroke-linecap="round" stroke-linejoin="round">
      <path d="M12 9v4M12 17h.01"/><path d="m21.73 18-8-14a2 2 0 0 0-3.48 0l-8 14A2 2 0 0 0 4 21h16a2 2 0 0 0 1.73-3Z"/>
    </symbol>
    <symbol id="ax-lightbulb" viewBox="0 0 24 24" fill="none" stroke="currentColor" stroke-width="1.75" stroke-linecap="round" stroke-linejoin="round">
      <path d="M15 14c.2-1 .7-1.7 1.5-2.5 1-.9 1.5-2.2 1.5-3.5A6 6 0 0 0 6 8c0 1 .2 2.2 1.5 3.5.7.7 1.3 1.5 1.5 2.5"/><path d="M9 18h6M10 22h4"/>
    </symbol>
    <symbol id="ax-trigger" viewBox="0 0 24 24" fill="none" stroke="currentColor" stroke-width="1.75" stroke-linecap="round" stroke-linejoin="round">
      <path d="M13 2L4 14h7l-1 8 10-14h-7l1-6z"/>
    </symbol>
    <symbol id="ax-brain" viewBox="0 0 24 24" fill="none" stroke="currentColor" stroke-width="1.75" stroke-linecap="round" stroke-linejoin="round">
      <path d="M12 4c-2 0-3.5 1.5-3.5 3.5 0 1 .5 1.8 1.2 2.3C8.5 10.5 8 11.5 8 12.5 8 15 9.8 17 12 17s4-2 4-4.5c0-1-.5-2-1.7-2.7.7-.5 1.2-1.3 1.2-2.3C15.5 5.5 14 4 12 4z"/><path d="M10 10h1M13 10h1M10.5 13h3"/><path d="M12 17v3"/>
    </symbol>
    <symbol id="ax-target" viewBox="0 0 24 24" fill="none" stroke="currentColor" stroke-width="1.75" stroke-linecap="round" stroke-linejoin="round">
      <circle cx="12" cy="12" r="8"/><circle cx="12" cy="12" r="4"/><circle cx="12" cy="12" r="1" fill="currentColor" stroke="none"/>
    </symbol>
    <symbol id="ax-arrow-right" viewBox="0 0 24 24" fill="none" stroke="currentColor" stroke-width="1.75" stroke-linecap="round" stroke-linejoin="round">
      <path d="M5 12h14M13 6l6 6-6 6"/>
    </symbol>
  </defs>
</svg>
